<svg width="16" height="16" viewBox="0 0 16 16" fill="none" xmlns="http://www.w3.org/2000/svg">
<path d="M7.08995 10.9139L7.15635 11.037C7.3306 11.3108 7.62993 11.4856 7.96006 11.4989C8.33723 11.5139 8.6908 11.3152 8.87412 10.9852L10.5323 7.99792L11.1427 9.01452C11.3234 9.31559 11.649 9.49979 12.0001 9.49987H13.1573L8.70713 13.9501C8.3166 14.3402 7.68349 14.3404 7.29307 13.9501L2.8419 9.49987H4.0001C4.39998 9.49972 4.76152 9.261 4.91905 8.89343L5.52647 7.47448L7.08995 10.9139ZM8.171 3.17175C9.73302 1.60974 12.2661 1.60988 13.8282 3.17175C14.9983 4.34186 15.292 6.05635 14.7091 7.49987H12.5665L11.3575 5.48523C11.1738 5.17918 10.8404 4.99406 10.4835 4.99987C10.1711 5.00514 9.88197 5.15647 9.69834 5.40319L9.62608 5.51452L8.08897 8.28015L6.41026 4.58581C6.24633 4.22557 5.88513 3.99572 5.48936 3.99987C5.14294 4.00368 4.82666 4.18619 4.64854 4.47546L4.58116 4.60632L3.34092 7.49987H1.29112C0.708301 6.05645 1.00118 4.34183 2.171 3.17175C3.73302 1.60973 6.26611 1.60988 7.82823 3.17175C7.8877 3.23122 7.94418 3.29316 7.99912 3.35534C8.05416 3.29304 8.11142 3.23134 8.171 3.17175Z" fill="#E0E0E0"/>
</svg>
